<svg width="20" height="19" viewBox="0 0 20 19" fill="none" xmlns="http://www.w3.org/2000/svg">
<path fill-rule="evenodd" clip-rule="evenodd" d="M4.91939 1.20824C3.36065 1.04829 1.63305 1.01235 0.52014 1.02878C0.237084 1.03295 0.00423468 0.806879 5.72913e-05 0.523823C-0.0041209 0.240767 0.221955 0.00791728 0.50501 0.00373343C1.64527 -0.013094 3.41464 0.0232957 5.02404 0.188437C5.82762 0.270894 6.60579 0.386862 7.25114 0.549015C7.57386 0.630099 7.8743 0.725415 8.13298 0.839122C8.38611 0.950389 8.63116 1.09296 8.81427 1.28386C9.11101 1.59322 9.37569 2.06591 9.60669 2.5711C9.84326 3.08855 10.0662 3.68914 10.265 4.2924C10.6625 5.49839 10.9756 6.75145 11.1168 7.44846C11.1292 7.50985 11.1301 7.57091 11.121 7.62938C11.436 8.01207 11.6608 8.45638 11.8228 8.86063C12.0812 9.50517 12.2133 10.1357 12.279 10.4495C12.2831 10.4694 12.2871 10.488 12.2907 10.5053C12.3492 10.7822 12.1722 11.0542 11.8951 11.1127C11.6182 11.1713 11.3462 10.9941 11.2877 10.7172C11.2843 10.7009 11.2806 10.6838 11.2769 10.6659C11.2113 10.3534 11.0951 9.80046 10.8713 9.2421C10.629 8.63755 10.2969 8.12151 9.85958 7.86951C9.77421 7.82032 9.61073 7.7574 9.35081 7.69198C9.09906 7.62858 8.78688 7.56986 8.4248 7.51655C7.70101 7.40985 6.80728 7.32844 5.85639 7.26787C3.95608 7.14678 1.86154 7.11076 0.514148 7.11488C0.231062 7.11576 0.000872256 6.88697 3.17949e-06 6.60389C-0.00086509 6.3208 0.227917 6.09061 0.511003 6.08974C1.87405 6.08556 3.99236 6.12187 5.92159 6.2448C6.88547 6.30622 7.81069 6.38978 8.5743 6.50233C8.95593 6.55859 9.30462 6.62313 9.60128 6.69789C9.70878 6.72498 9.81411 6.75451 9.91467 6.78711C9.75781 6.15363 9.54191 5.37343 9.29137 4.61331C9.09922 4.03034 8.8897 3.46827 8.67437 2.99741C8.45347 2.51429 8.24662 2.17302 8.0745 1.9935C8.02313 1.93996 7.9149 1.86308 7.72043 1.7776C7.53154 1.69456 7.29013 1.61582 7.00132 1.54325C6.42358 1.39809 5.69989 1.28832 4.91939 1.20824ZM7.72377e-07 10.5683C7.72377e-07 10.2852 0.229488 10.0556 0.512575 10.0556H4.99105V12.7382C4.99105 13.0213 4.76156 13.2508 4.47848 13.2508C4.19539 13.2508 3.9659 13.0213 3.9659 12.7382V11.0808H0.512575C0.229488 11.0808 7.72377e-07 10.8513 7.72377e-07 10.5683Z" fill="white"/>
<path fill-rule="evenodd" clip-rule="evenodd" d="M10.5146 11.1445H7.37186C7.13905 11.1445 6.95033 11.3333 6.95033 11.5661C6.95033 11.7989 7.13905 11.9876 7.37186 11.9876H10.5146C10.7475 11.9876 10.9362 11.7989 10.9362 11.5661C10.9362 11.3333 10.7475 11.1445 10.5146 11.1445ZM7.37186 10.1194C6.57288 10.1194 5.92518 10.7671 5.92518 11.5661C5.92518 12.3651 6.57288 13.0128 7.37186 13.0128H10.5146C11.3137 13.0128 11.9614 12.3651 11.9614 11.5661C11.9614 10.7671 11.3137 10.1194 10.5146 10.1194H7.37186Z" fill="white"/>
<path fill-rule="evenodd" clip-rule="evenodd" d="M11.7119 10.1309C12.6424 10.1309 13.3968 10.8852 13.3968 11.8157V16.1308C13.3968 17.4333 12.3409 18.4892 11.0384 18.4892H10.8139C9.66509 18.4892 8.72833 17.5813 8.68188 16.4439H0.512574C0.229487 16.4439 0 16.2144 0 15.9313C0 15.6482 0.229487 15.4188 0.512574 15.4188H9.96587C10.7562 15.4188 11.0378 15.1535 11.1515 14.9557C11.2254 14.827 11.259 14.6741 11.2639 14.5233H0.512574C0.229487 14.5233 0 14.2938 0 14.0107C0 13.7276 0.229487 13.4982 0.512574 13.4982H12.0985L12.2047 13.8699C12.3197 14.2724 12.3617 14.9071 12.0403 15.4664C11.6942 16.0689 11.0113 16.4439 9.96587 16.4439H9.7087C9.75385 17.0148 10.2314 17.464 10.8139 17.464H11.0384C11.7747 17.464 12.3716 16.8671 12.3716 16.1308V11.8157C12.3716 11.4514 12.0762 11.156 11.7119 11.156V10.1309Z" fill="white"/>
<path fill-rule="evenodd" clip-rule="evenodd" d="M16.0351 2.8748C15.1809 2.8748 14.4024 3.36465 14.0327 4.13471L12.7501 6.80667H17.4922C17.7753 6.80667 18.0048 7.03616 18.0048 7.31923C18.0048 7.60233 17.7753 7.83179 17.4922 7.83179H10.7641C10.481 7.83179 10.2516 7.60233 10.2516 7.31923C10.2516 7.03616 10.481 6.80667 10.7641 6.80667H11.6129L13.1085 3.69105C13.6489 2.56558 14.7867 1.84965 16.0351 1.84965H19.1728V6.86213L19.9905 7.42593V14.1514H12.9834C12.7003 14.1514 12.4708 13.922 12.4708 13.6389C12.4708 13.3558 12.7003 13.1263 12.9834 13.1263H18.9653V7.96433L18.1476 7.40048V2.8748H16.0351Z" fill="white"/>
</svg>
