<svg width="24" height="22" viewBox="0 0 24 22" fill="none" xmlns="http://www.w3.org/2000/svg">
<g clip-path="url(#clip0_1189_815)">
<path fill-rule="evenodd" clip-rule="evenodd" d="M5.85294 2.11148C4.07151 1.94391 2.09712 1.90626 0.825219 1.92347C0.501727 1.92784 0.235613 1.691 0.230839 1.39447C0.226064 1.09794 0.484436 0.853997 0.807928 0.849614C2.11108 0.831986 4.13322 0.870108 5.97253 1.04311C6.89091 1.1295 7.78025 1.25099 8.51779 1.42086C8.88661 1.50581 9.22997 1.60566 9.5256 1.72478C9.8149 1.84135 10.095 1.99071 10.3042 2.1907C10.6434 2.51479 10.9459 3.00999 11.2099 3.53923C11.4802 4.08132 11.735 4.71051 11.9623 5.34251C12.4165 6.60592 12.7744 7.91865 12.9356 8.64885C12.9499 8.71316 12.9509 8.77713 12.9404 8.83839C13.3004 9.2393 13.5574 9.70477 13.7426 10.1283C14.0379 10.8035 14.1888 11.4641 14.2639 11.7928C14.2687 11.8136 14.2732 11.8331 14.2773 11.8512C14.3442 12.1414 14.1418 12.4263 13.8252 12.4876C13.5087 12.5489 13.1979 12.3634 13.131 12.0732C13.1271 12.0561 13.1229 12.0383 13.1187 12.0195C13.0436 11.6921 12.9109 11.1129 12.6551 10.5279C12.3782 9.89456 11.9986 9.35395 11.4989 9.08995C11.4013 9.03842 11.2145 8.97251 10.9174 8.90397C10.6297 8.83754 10.2729 8.77603 9.85911 8.72018C9.03193 8.60841 8.01052 8.52311 6.92379 8.45966C4.752 8.33281 2.35825 8.29507 0.818371 8.29939C0.494845 8.3003 0.23177 8.06062 0.230777 7.76406C0.229785 7.46749 0.49125 7.22634 0.814777 7.22543C2.37254 7.22105 4.79347 7.25909 6.9983 7.38787C8.09988 7.45222 9.15728 7.53976 10.03 7.65767C10.4661 7.7166 10.8646 7.78422 11.2037 7.86254C11.3265 7.89092 11.4469 7.92185 11.5618 7.95601C11.3826 7.29237 11.1358 6.47501 10.8495 5.67869C10.6299 5.06796 10.3904 4.47913 10.1443 3.98585C9.89188 3.47972 9.65548 3.1222 9.45877 2.93413C9.40007 2.87804 9.27637 2.7975 9.05412 2.70795C8.83825 2.62096 8.56236 2.53847 8.23228 2.46244C7.57201 2.31037 6.74494 2.19537 5.85294 2.11148ZM0.230774 11.9172C0.230774 11.6206 0.493046 11.3802 0.816574 11.3802H5.93483V14.1905C5.93483 14.4871 5.67256 14.7275 5.34903 14.7275C5.0255 14.7275 4.76323 14.4871 4.76323 14.1905V12.4542H0.816574C0.493046 12.4542 0.230774 12.2137 0.230774 11.9172Z" fill="white"/>
<path fill-rule="evenodd" clip-rule="evenodd" d="M12.2475 12.5212H8.65573C8.38966 12.5212 8.17398 12.7189 8.17398 12.9628C8.17398 13.2068 8.38966 13.4044 8.65573 13.4044H12.2475C12.5136 13.4044 12.7292 13.2068 12.7292 12.9628C12.7292 12.7189 12.5136 12.5212 12.2475 12.5212ZM8.65573 11.4473C7.74261 11.4473 7.00238 12.1258 7.00238 12.9628C7.00238 13.7999 7.74261 14.4784 8.65573 14.4784H12.2475C13.1607 14.4784 13.9009 13.7999 13.9009 12.9628C13.9009 12.1258 13.1607 11.4473 12.2475 11.4473H8.65573Z" fill="white"/>
<path fill-rule="evenodd" clip-rule="evenodd" d="M13.6158 11.459C14.6792 11.459 15.5414 12.2492 15.5414 13.2241V17.7446C15.5414 19.1091 14.3347 20.2153 12.8461 20.2153H12.5896C11.2766 20.2153 10.206 19.2642 10.1529 18.0726H0.816572C0.493045 18.0726 0.230774 17.8322 0.230774 17.5356C0.230774 17.2391 0.493045 16.9987 0.816572 16.9987H11.6203C12.5236 16.9987 12.8454 16.7208 12.9753 16.5136C13.0598 16.3787 13.0982 16.2185 13.1038 16.0605H0.816572C0.493045 16.0605 0.230774 15.8201 0.230774 15.5236C0.230774 15.227 0.493045 14.9866 0.816572 14.9866H14.0576L14.179 15.376C14.3105 15.7977 14.3585 16.4626 13.9912 17.0486C13.5955 17.6797 12.8152 18.0726 11.6203 18.0726H11.3264C11.378 18.6707 11.9239 19.1413 12.5896 19.1413H12.8461C13.6876 19.1413 14.3697 18.516 14.3697 17.7446V13.2241C14.3697 12.8424 14.0322 12.5329 13.6158 12.5329V11.459Z" fill="white"/>
<path fill-rule="evenodd" clip-rule="evenodd" d="M18.5566 3.85814C17.5804 3.85814 16.6906 4.37132 16.2681 5.17805L14.8023 7.97725H20.2219C20.5454 7.97725 20.8076 8.21766 20.8076 8.51422C20.8076 8.81079 20.5454 9.05118 20.2219 9.05118H12.5326C12.2091 9.05118 11.9468 8.81079 11.9468 8.51422C11.9468 8.21766 12.2091 7.97725 12.5326 7.97725H13.5027L15.2119 4.71327C15.8295 3.5342 17.1298 2.78418 18.5566 2.78418H22.1426V8.03535L23.077 8.62599V15.6717H15.069C14.7454 15.6717 14.4832 15.4314 14.4832 15.1348C14.4832 14.8382 14.7454 14.5978 15.069 14.5978H21.9054V9.19004L20.9709 8.59934V3.85814H18.5566Z" fill="white"/>
<path d="M13.8022 11.2733L12.9231 7.99219H22.1539V14.5544C19.8095 14.7106 15.1209 14.9294 15.1209 14.5544V12.2108L13.8022 11.2733Z" fill="white"/>
</g>
<defs>
<clipPath id="clip0_1189_815">
<rect width="24" height="22" fill="white"/>
</clipPath>
</defs>
</svg>
