<svg width="24" height="23" viewBox="0 0 24 23" fill="none" xmlns="http://www.w3.org/2000/svg">
<path d="M9.23222 20.0215C10.7393 18.4353 10.9808 17.5622 9.99886 14.7095C10.2646 14.8724 10.5522 15.0025 10.8555 15.0966C11.2099 15.2059 11.5866 15.2648 11.9765 15.2648C12.367 15.2648 12.7441 15.206 13.099 15.0961L13.9562 14.7086C12.9723 17.5613 13.2138 18.4353 14.7213 20.0215C14.4739 20.1012 14.2224 20.17 13.9681 20.2279C13.3202 20.3754 12.6526 20.4516 11.9765 20.4516C11.3004 20.4516 10.6328 20.3754 9.98494 20.2279C9.73064 20.1699 9.47967 20.1012 9.23222 20.0215ZM11.9766 8.34586C10.2602 8.34586 8.86355 9.7425 8.86355 11.4589C8.86355 13.1753 10.2602 14.5719 11.9766 14.5719C13.6939 14.5719 15.0911 13.1753 15.0911 11.4589C15.0911 9.7425 13.6939 8.34586 11.9766 8.34586ZM21.0786 3.67331L19.0841 5.66784C20.4149 7.30008 21.1444 9.34411 21.1444 11.4589C21.1444 13.5736 20.4149 15.6177 19.0841 17.2499L21.0786 19.2444C22.935 17.0767 23.9531 14.3265 23.9531 11.4589C23.9531 8.5913 22.935 5.84105 21.0786 3.67331ZM18.1675 12.271C18.9781 12.271 19.6993 12.4997 20.3194 12.9516C20.407 12.4621 20.4516 11.9627 20.4516 11.4589C20.4516 11.0956 20.4283 10.7348 20.3822 10.3785C20.1566 10.4443 19.9239 10.4769 19.6869 10.4769C19.4691 10.4769 19.2479 10.4492 19.0267 10.3933L15.192 9.42277C15.5667 10.0117 15.7839 10.7106 15.7839 11.4589C15.7839 11.7375 15.7538 12.0092 15.6963 12.271H18.1675ZM11.9766 21.1444C9.32381 21.1444 6.78881 20.0531 4.96308 18.1373L3.70847 19.3924C5.86387 21.6369 8.85858 22.9177 11.9766 22.9177C15.0966 22.9177 18.0913 21.6364 20.2457 19.3914L18.9906 18.1363C17.1653 20.0527 14.6298 21.1444 11.9766 21.1444ZM4.92642 10.3933C4.70522 10.4492 4.48397 10.4775 4.26619 10.4775C4.02914 10.4775 3.79603 10.4443 3.57084 10.3785C3.52481 10.7348 3.50156 11.0956 3.50156 11.4589C3.50156 11.9627 3.54661 12.4621 3.63422 12.9516C4.25484 12.4997 4.97592 12.271 5.78564 12.271H8.25773C8.20083 12.0092 8.17064 11.7375 8.17064 11.4589C8.17064 10.7106 8.38791 10.0117 8.76258 9.4223L4.92642 10.3933ZM11.9766 1.77333C14.6308 1.77333 17.1663 2.86509 18.991 4.78097L20.2456 3.52636C18.0913 1.28133 15.0965 0 11.9766 0C8.85858 0 5.86383 1.28086 3.70842 3.52533L4.96303 4.78045C6.78881 2.86463 9.32381 1.77333 11.9766 1.77333ZM2.80866 11.4589C2.80866 9.34308 3.53817 7.29956 4.8705 5.66784L2.87597 3.67331C1.01855 5.84156 0 8.59233 0 11.4589C0 14.3254 1.01855 17.0762 2.87602 19.2444L4.87055 17.2499C3.53817 15.6182 2.80866 13.5747 2.80866 11.4589Z" fill="black"/>
</svg>
