<svg width="75" height="85" viewBox="0 0 75 85" fill="none" xmlns="http://www.w3.org/2000/svg">
<path d="M12.0794 7.64869C15.4536 22.6861 21.8277 39.4384 22.8492 46.6929C8.60606 38.2064 -1.01198 43.95 0.0861484 50.4284C13.1982 54.4071 24.1025 66.254 29.0288 69.5352C35.3527 73.7471 37.8128 73.3828 41.568 84.54C50.5769 85.0044 64.84 80.5092 74.1669 75.3007C71.4685 70.4828 71.6818 62.878 71.6818 62.878C71.6818 62.878 72.4181 54.5178 71.5211 48.7406C70.2804 40.7496 68.071 34.4792 64.1965 28.6367C58.1104 23.8737 53.679 28.6 53.679 28.6C53.679 28.6 49.4417 26.1797 47.1132 26.8397C44.9744 27.4459 42.0302 29.7891 42.0302 29.7891C42.0302 29.7891 38.6419 27.6838 36.3258 27.9356C34.0461 28.1834 31.0086 31.1026 31.0086 31.1026L23.4479 4.42657C20.0742 -3.82092 9.82595 0.743408 12.0794 7.64869Z" fill="url(#paint0_linear_885_7293)"/>
<defs>
<linearGradient id="paint0_linear_885_7293" x1="14.6573" y1="0.622332" x2="61.3046" y2="86.0566" gradientUnits="userSpaceOnUse">
<stop stop-color="white"/>
<stop offset="1" stop-color="white" stop-opacity="0.35"/>
</linearGradient>
</defs>
</svg>
